<?xml version="1.0" encoding="UTF-8"?>
<svg id="Layer_1" data-name="Layer 1" xmlns="http://www.w3.org/2000/svg" viewBox="0 0 178 34">
  <path d="M177.03,7.02c-4.35,1.47-5.55,2.66-7.02,7.02-1.47-4.35-2.66-5.55-7.02-7.02,4.35-1.47,5.55-2.66,7.02-7.02,1.47,4.35,2.66,5.55,7.02,7.02Z" style="fill: #ec5e52;"/>
  <path d="M23.97,19.01l-.04,5.76c0,2.32-1.49,9.01-11.37,9.01,0,0-12.56.34-12.56-13.27S12.56,7.27,12.56,7.27c9.91,0,11.22,8.3,11.22,8.3l-3.74,1.31s-.94-5.76-7.59-5.76c0,0-8.19-.34-8.19,9.39s8.19,9.42,8.19,9.42c6.39,0,7.59-3.59,7.59-5.24v-2.06h-11.93v-3.62h15.86Z" style="fill: #222;"/>
  <path d="M40.25,27.95l-.94-.04c-.37,2.43-2.2,5.35-5.95,5.76-8.04.9-7.86-4.64-7.86-4.64-.04-5.24,7.86-6.92,7.86-6.92l5.91-1.46c0-1.35-1.08-3.59-4.53-3.59-5.01,0-5.57,2.77-5.57,2.77l-3.67-1.42s1.46-4.94,9.24-4.94c9.53,0,8.68,7.33,8.68,7.33v7.26s-.18,1.79,2.69,1.79l-.07,3.74s-6.02.56-5.8-5.65h0ZM39.2,23.53l-5.31,1.46c-4.34,1.16-4,3.37-4,3.37.11,2.09,4,1.46,4,1.46,3.21-.71,5.31-3.85,5.31-6.28Z" style="fill: #222;"/>
  <path d="M79.67,22.04v11.63h-4.22v-10.13c0-2.32-.6-4.97-2.99-5.91-2.99-1.05-6.51,1.31-6.44,4.56v11.48h-4.3v-11.52c0-1.91-.9-4.75-4.11-4.6,0,0-5.16-.07-5.31,5.72v10.4h-4.22V13.55h4.56l-1.16,5.61h.94c.48-3.74,2.96-5.61,5.72-5.61,3.07,0,5.2,2.17,5.43,5.65h.82c.37-3.78,4-6.17,8.6-5.68,6.73.67,6.69,8.53,6.69,8.53h0Z" style="fill: #222;"/>
  <path d="M99.75,22.56l-14.29,1.83c0,5.68,5.43,5.46,5.43,5.46,4.49,0,4.86-4,4.86-4l3.81,1.24s-.9,6.58-8.53,6.58c0,0-9.8.45-9.8-10.06s9.8-10.1,9.8-10.1c8.6,0,8.71,7.74,8.71,8.04v1.01ZM85.5,21.55l10.25-1.35c0-.71-.78-3.25-5.54-2.84,0,0-4.97.34-4.71,4.19Z" style="fill: #222;"/>
  <path d="M106.3,33.66h-4.26V7.49h4.6l-1.05,11.67h.82c.48-3.78,2.92-5.43,5.72-5.65,8.27-.67,7.89,8.49,7.89,8.49v11.67h-4.26v-10.17s.48-6.21-4.15-5.98c0,0-5.38.11-5.38,5.76l.07,10.4h0Z" style="fill: #222;"/>
  <path d="M135.74,13.51h4.23v20.12h-4.56l1.12-5.35h-1.05c-.48,3.51-2.81,5.12-5.57,5.35-8.27.67-7.89-8.49-7.89-8.49v-11.63h4.26v10.13s-.48,6.21,4.11,5.98c0,0,5.35.04,5.35-5.72v-10.4h0Z" style="fill: #222;"/>
  <path d="M142.81,33.63l.07-26.14h4.68l-1.19,11.67h.97c.64-3.81,2.69-5.61,5.83-5.65,8.04,0,7.82,9.91,7.82,9.91.15,4.64-2.13,10.02-7.48,10.25h-.26c-1.57,0-4.86-.34-5.91-5.39h-1.08l1.16,5.35h-4.6ZM156.76,23.53c0-6.1-4.19-5.98-4.19-5.98-4.11-.26-5.01,2.8-5.24,6.02.04,6.73,5.31,5.98,5.31,5.98,4.26,0,4.11-6.02,4.11-6.02Z" style="fill: #222;"/>
</svg>