<?xml version="1.0" encoding="UTF-8"?>
<svg id="Layer_1" data-name="Layer 1" xmlns="http://www.w3.org/2000/svg" viewBox="0 0 24 24">
  <path d="M18,18.72c.25.02.5.03.75.03,1.05,0,2.05-.18,2.99-.51,0-.08,0-.16,0-.24,0-1.66-1.34-3-3-3-.63,0-1.21.19-1.69.52M18,18.72s0,.02,0,.03c0,.23-.01.45-.04.67-1.76,1.01-3.79,1.58-5.96,1.58s-4.21-.58-5.96-1.58c-.02-.22-.04-.44-.04-.67,0-.01,0-.02,0-.03M18,18.72c0-1.18-.35-2.27-.94-3.2M17.06,15.52c-1.07-1.67-2.93-2.77-5.06-2.77s-3.99,1.1-5.06,2.77M6.94,15.52c-.48-.33-1.06-.52-1.69-.52-1.66,0-3,1.34-3,3,0,.08,0,.16,0,.24.94.33,1.94.51,2.99.51.25,0,.5-.01.75-.03M6.94,15.52c-.59.92-.94,2.02-.94,3.2M15,6.75c0,1.66-1.34,3-3,3s-3-1.34-3-3,1.34-3,3-3,3,1.34,3,3ZM21,9.75c0,1.24-1.01,2.25-2.25,2.25s-2.25-1.01-2.25-2.25,1.01-2.25,2.25-2.25,2.25,1.01,2.25,2.25ZM7.5,9.75c0,1.24-1.01,2.25-2.25,2.25s-2.25-1.01-2.25-2.25,1.01-2.25,2.25-2.25,2.25,1.01,2.25,2.25Z" style="fill: none; stroke: #222; stroke-linecap: round; stroke-linejoin: round; stroke-width: 1.5px;"/>
</svg>