<?xml version="1.0" encoding="UTF-8"?>
<svg id="Layer_1" data-name="Layer 1" xmlns="http://www.w3.org/2000/svg" xmlns:xlink="http://www.w3.org/1999/xlink" viewBox="0 0 16 17">
  <defs>
    <clipPath id="clippath">
      <rect y=".98" width="16" height="16" style="fill: none;"/>
    </clipPath>
  </defs>
  <g style="clip-path: url(#clippath);">
    <path d="M1,2h1.04c.38,0,.72.26.82.63l.29,1.08M3.14,3.7c4.18-.12,8.35.35,12.4,1.38-.62,1.84-1.35,3.63-2.19,5.35H4.94M3.14,3.7l1.8,6.73M4.94,10.44c-.6,0-1.17.24-1.59.66s-.66.99-.66,1.59h11.81M3.81,14.94c0,.15-.06.29-.16.4-.11.11-.25.16-.4.16s-.29-.06-.4-.16c-.11-.11-.16-.25-.16-.4s.06-.29.16-.4c.11-.11.25-.16.4-.16s.29.06.4.16c.11.11.16.25.16.4ZM13.38,14.94c0,.15-.06.29-.16.4-.11.11-.25.16-.4.16s-.29-.06-.4-.16c-.11-.11-.16-.25-.16-.4s.06-.29.16-.4c.11-.11.25-.16.4-.16s.29.06.4.16c.11.11.16.25.16.4Z" style="fill: none; stroke: #faf9f6; stroke-linecap: round; stroke-linejoin: round; stroke-width: 1.13px;"/>
  </g>
</svg>