<?xml version="1.0" encoding="UTF-8"?>
<svg id="Layer_1" data-name="Layer 1" xmlns="http://www.w3.org/2000/svg" viewBox="0 0 24 24">
  <path d="M5.98,3.66h1.5c.59,0,1.18.11,1.72.34.55.23,1.04.56,1.46.97.42.42.75.91.97,1.46.23.55.34,1.13.34,1.72v1.5" style="fill: none; stroke: #222; stroke-linecap: round; stroke-linejoin: round; stroke-width: 1.5px;"/>
  <path d="M17.87,9.65H6.08c-.89,0-1.77.23-2.55.66-.78.43-1.44,1.04-1.93,1.79-.48.75-.77,1.61-.84,2.49-.07.89.09,1.78.45,2.59.36.81.93,1.52,1.63,2.06.71.54,1.54.9,2.42,1.03.88.14,1.78.05,2.62-.25.84-.3,1.59-.8,2.18-1.47h3.88c.59.66,1.34,1.16,2.18,1.45.84.3,1.73.38,2.61.24.88-.14,1.7-.49,2.41-1.03.7-.54,1.26-1.25,1.63-2.06.36-.81.52-1.7.45-2.58-.07-.88-.35-1.74-.83-2.49-.48-.75-1.14-1.36-1.92-1.79-.78-.43-1.65-.66-2.54-.66h-.08Z" style="fill: none; stroke: #222; stroke-linecap: round; stroke-linejoin: round; stroke-width: 1.5px;"/>
  <path d="M6.08,13.22v3.56" style="fill: none; stroke: #222; stroke-linecap: round; stroke-linejoin: round; stroke-width: 1.5px;"/>
  <path d="M4.3,15h3.57" style="fill: none; stroke: #222; stroke-linecap: round; stroke-linejoin: round; stroke-width: 1.5px;"/>
  <path d="M16.36,16.57c-.21,0-.38-.17-.38-.38s.17-.38.38-.38" style="fill: none; stroke: #222; stroke-width: 1.5px;"/>
  <path d="M16.36,16.57c.21,0,.38-.17.38-.38s-.17-.38-.38-.38" style="fill: none; stroke: #222; stroke-width: 1.5px;"/>
  <path d="M19.1,13.9c-.21,0-.38-.17-.38-.38s.17-.38.38-.38" style="fill: none; stroke: #222; stroke-width: 1.5px;"/>
  <path d="M19.1,13.9c.21,0,.38-.17.38-.38s-.17-.38-.38-.38" style="fill: none; stroke: #222; stroke-width: 1.5px;"/>
</svg>