<?xml version="1.0" encoding="UTF-8"?>
<svg id="Layer_1" data-name="Layer 1" xmlns="http://www.w3.org/2000/svg" viewBox="0 0 24 24">
  <path d="M3.75,13.94v8.25h6v-6c0-.4.16-.78.44-1.06.28-.28.66-.44,1.06-.44h1.5c.4,0,.78.16,1.06.44s.44.66.44,1.06v6h6v-8.25" style="fill: none; stroke: #ec5e52; stroke-linecap: round; stroke-linejoin: round; stroke-width: 1.5px;"/>
  <path d="M.75,12.44L10.94,2.25c.14-.14.3-.25.49-.33s.38-.12.57-.12.39.04.57.12.35.19.49.33l10.19,10.19" style="fill: none; stroke: #ec5e52; stroke-linecap: round; stroke-linejoin: round; stroke-width: 1.5px;"/>
  <path d="M16.5,5.69v-2.92h3.75v6.67" style="fill: none; stroke: #ec5e52; stroke-linecap: round; stroke-linejoin: round; stroke-width: 1.5px;"/>
</svg>